{"title":"Best Of Luck (2013) Punjabi Movie DVDRIP  GOPI SAHI PDR","uid":8944237,"size":423517520,"categoryP":"video","categoryS":"hd___movies","magnet":"?xt=urn:btih:f151f6bda3c6f0ef3c2fb92c75621738323b7dd3&amp;dn=Best+Of+Luck+%282013%29+Punjabi+Movie+DVDRIP++GOPI+SAHI+PDR&amp;tr=udp%3A%2F%2Ftracker.openbittorrent.com%3A80&amp;tr=udp%3A%2F%2Fopen.demonii.com%3A1337&amp;tr=udp%3A%2F%2Ftracker.coppersurfer.tk%3A6969&amp;tr=udp%3A%2F%2Fexodus.desync.com%3A6969","seeders":1,"leechers":0,"uploader":"jatt13","files":8,"time":1379734374,"description":"[img]http://imageshack.us/a/img802/2678/k9wp.png[/img]\n\n[img]http://imageshack.us/a/img802/293/2eox.jpg[/img]\n\nIMDB  [url]http://www.imdb.com/title/tt2215348/[/url]\n\nDirector:Manmord Sidhu\nWriters:Anugrah Bohrey, Dheeraj Rattan\nStars:Gippy Grewal, Jazzy B., Simran Kaur Mundi \n\nVideo\nID                             : 0\nFormat                         : AVC\nFormat/Info                    : Advanced Video Codec\nFormat profile                 : &lt;a class=&quot;__cf_email__&quot; href=&quot;/cdn-cgi/l/email-protection&quot; data-cfemail=&quot;c588a4acab8589f0ebf4&quot;&gt;[email&amp;#160;protected]&lt;/a&gt;&lt;script cf-hash='f9e31' type=&quot;text/javascript&quot;&gt;\n/* &lt;![CDATA[ */!function(){try{var t=&quot;currentScript&quot;in document?document.currentScript:function(){for(var t=document.getElementsByTagName(&quot;script&quot;),e=t.length;e--;)if(t[e].getAttribute(&quot;cf-hash&quot;))return t[e]}();if(t&amp;&amp;t.previousSibling){var e,r,n,i,c=t.previousSibling,a=c.getAttribute(&quot;data-cfemail&quot;);if(a){for(e=&quot;&quot;,r=parseInt(a.substr(0,2),16),n=2;a.length-n;n+=2)i=parseInt(a.substr(n,2),16)^r,e+=String.fromCharCode(i);e=document.createTextNode(e),c.parentNode.replaceChild(e,c)}}}catch(u){}}();/* ]]&gt; */&lt;/script&gt;\nFormat settings, CABAC         : Yes\nFormat settings, ReFrames      : 1 frame\nCodec ID                       : H264\nDuration                       : 2h 12mn\nBit rate                       : 351 Kbps\nWidth                          : 640 pixels\nHeight                         : 360 pixels\nDisplay aspect ratio           : 16:9\nFrame rate                     : 25.000 fps\nColor space                    : YUV\nChroma subsampling             : 4:2:0\nBit depth                      : 8 bits\nScan type                      : Progressive\nBits/(Pixel*Frame)             : 0.061\nStream size                    : 333 MiB (83%)\n\nAudio\nID                             : 1\nFormat                         : MPEG Audio\nFormat version                 : Version 1\nFormat profile                 : Layer 2\nCodec ID                       : 50\nDuration                       : 2h 12mn\nBit rate mode                  : Constant\nBit rate                       : 64.0 Kbps\nChannel(s)                     : 2 channels\nSampling rate                  : 44.1 KHz\nCompression mode               : Lossy\nStream size                    : 60.5 MiB (15%)\nAlignment                      : Aligned on interleaves\nInterleave, duration           : 40 ms (1.00 video frame)\nInterleave, preload duration   : 52 ms\n\n[img]http://imageshack.us/a/img534/9148/tdx4.png[/img]\n[img]http://imageshack.us/a/img191/2774/97hm.jpg[/img]\n[img]http://imageshack.us/a/img27/7125/jeid.png[/img]\n[img]http://imageshack.us/a/img853/6990/krb5.png[/img]\n[img]http://imageshack.us/a/img17/2219/tu9g.png[/img]","torrent":{"xt":"urn:btih:f151f6bda3c6f0ef3c2fb92c75621738323b7dd3","amp;dn":"Best+Of+Luck+%282013%29+Punjabi+Movie+DVDRIP++GOPI+SAHI+PDR","amp;tr":["udp%3A%2F%2Ftracker.openbittorrent.com%3A80","udp%3A%2F%2Fopen.demonii.com%3A1337","udp%3A%2F%2Ftracker.coppersurfer.tk%3A6969","udp%3A%2F%2Fexodus.desync.com%3A6969"],"infoHash":"f151f6bda3c6f0ef3c2fb92c75621738323b7dd3","infoHashBuffer":{"type":"Buffer","data":[241,81,246,189,163,198,240,239,60,47,185,44,117,98,23,56,50,59,125,211]},"announce":[],"urlList":[]}}